<svg xmlns="http://www.w3.org/2000/svg" width="14.811" height="16" viewBox="0 0 14.811 16" fill="none">
  <path d="M 6.834 1.525 C 7.022 1.508 7.213 1.5 7.405 1.5 C 7.598 1.5 7.788 1.508 7.976 1.525 C 8.012 1.528 8.085 1.561 8.113 1.671 L 8.402 2.776 C 8.549 3.337 8.951 3.743 9.4 3.965 C 9.573 4.051 9.74 4.148 9.9 4.254 C 10.317 4.533 10.87 4.678 11.43 4.525 L 12.532 4.222 C 12.641 4.192 12.707 4.238 12.728 4.268 C 12.946 4.578 13.138 4.909 13.3 5.257 C 13.315 5.288 13.322 5.368 13.241 5.447 L 12.427 6.253 C 12.015 6.659 11.864 7.21 11.896 7.709 C 11.902 7.805 11.905 7.902 11.905 8 C 11.905 8.098 11.902 8.195 11.896 8.291 C 11.864 8.79 12.015 9.341 12.427 9.747 L 13.241 10.552 C 13.322 10.632 13.315 10.712 13.3 10.743 C 13.138 11.091 12.946 11.422 12.728 11.732 C 12.707 11.762 12.641 11.808 12.532 11.778 L 11.43 11.475 C 10.87 11.322 10.317 11.467 9.9 11.746 C 9.74 11.852 9.573 11.949 9.4 12.035 C 8.951 12.257 8.549 12.663 8.402 13.224 L 8.113 14.329 C 8.085 14.438 8.012 14.472 7.976 14.475 C 7.788 14.492 7.598 14.5 7.405 14.5 C 7.213 14.5 7.022 14.492 6.834 14.475 C 6.799 14.472 6.726 14.438 6.697 14.329 L 6.408 13.224 C 6.262 12.663 5.859 12.257 5.411 12.035 C 5.237 11.949 5.07 11.852 4.91 11.746 C 4.494 11.467 3.94 11.322 3.381 11.475 L 2.278 11.778 C 2.169 11.808 2.104 11.762 2.083 11.732 C 1.864 11.422 1.673 11.091 1.511 10.743 C 1.496 10.712 1.489 10.632 1.569 10.552 L 2.384 9.747 C 2.795 9.341 2.946 8.79 2.915 8.291 C 2.908 8.195 2.905 8.098 2.905 8 C 2.905 7.902 2.908 7.805 2.915 7.709 C 2.946 7.21 2.795 6.659 2.384 6.253 L 1.569 5.447 C 1.489 5.368 1.496 5.288 1.511 5.257 C 1.673 4.909 1.864 4.578 2.083 4.268 C 2.104 4.238 2.169 4.192 2.278 4.222 L 3.381 4.525 C 3.94 4.678 4.494 4.533 4.91 4.254 C 5.07 4.148 5.237 4.051 5.411 3.965 C 5.859 3.743 6.262 3.337 6.408 2.776 L 6.697 1.671 C 6.726 1.561 6.799 1.528 6.834 1.525 Z M 7.405 0 C 7.169 0 6.935 0.01 6.704 0.03 C 5.961 0.095 5.415 0.645 5.246 1.291 L 4.957 2.397 C 4.94 2.463 4.878 2.555 4.745 2.621 C 4.514 2.735 4.291 2.865 4.077 3.007 C 3.954 3.089 3.845 3.097 3.778 3.078 L 2.675 2.776 C 2.032 2.599 1.284 2.796 0.856 3.405 C 0.587 3.788 0.351 4.195 0.151 4.623 C -0.164 5.298 0.04 6.045 0.515 6.514 L 1.33 7.32 C 1.379 7.368 1.427 7.467 1.418 7.614 C 1.409 7.742 1.405 7.87 1.405 8 C 1.405 8.13 1.409 8.258 1.418 8.386 C 1.427 8.533 1.379 8.632 1.33 8.68 L 0.515 9.486 C 0.04 9.955 -0.164 10.702 0.151 11.377 C 0.351 11.805 0.587 12.212 0.856 12.595 C 1.284 13.204 2.032 13.401 2.675 13.224 L 3.778 12.922 C 3.845 12.903 3.954 12.911 4.077 12.993 C 4.291 13.135 4.514 13.265 4.745 13.379 C 4.878 13.445 4.94 13.536 4.957 13.603 L 5.246 14.709 C 5.415 15.355 5.961 15.905 6.704 15.97 C 6.935 15.99 7.169 16 7.405 16 C 7.641 16 7.875 15.99 8.106 15.97 C 8.849 15.905 9.395 15.355 9.564 14.709 L 9.853 13.603 C 9.871 13.536 9.932 13.445 10.065 13.379 C 10.297 13.265 10.52 13.135 10.733 12.993 C 10.856 12.911 10.966 12.903 11.033 12.922 L 12.136 13.224 C 12.779 13.401 13.527 13.204 13.955 12.595 C 14.224 12.212 14.46 11.805 14.659 11.377 C 14.974 10.702 14.77 9.955 14.296 9.486 L 13.481 8.68 C 13.432 8.632 13.384 8.533 13.393 8.386 C 13.401 8.258 13.405 8.13 13.405 8 C 13.405 7.87 13.401 7.742 13.393 7.614 C 13.384 7.467 13.432 7.368 13.481 7.32 L 14.296 6.514 C 14.77 6.045 14.974 5.298 14.659 4.623 C 14.46 4.195 14.224 3.788 13.955 3.405 C 13.527 2.796 12.779 2.599 12.136 2.776 L 11.033 3.078 C 10.966 3.097 10.856 3.089 10.733 3.007 C 10.52 2.864 10.297 2.735 10.065 2.621 C 9.932 2.555 9.871 2.463 9.853 2.397 L 9.564 1.291 C 9.395 0.645 8.849 0.095 8.106 0.03 C 7.875 0.01 7.641 0 7.405 0 Z M 8.905 8 C 8.905 8.828 8.234 9.5 7.405 9.5 C 6.577 9.5 5.905 8.828 5.905 8 C 5.905 7.172 6.577 6.5 7.405 6.5 C 8.234 6.5 8.905 7.172 8.905 8 Z M 10.405 8 C 10.405 9.657 9.062 11 7.405 11 C 5.748 11 4.405 9.657 4.405 8 C 4.405 6.343 5.748 5 7.405 5 C 9.062 5 10.405 6.343 10.405 8 Z" fill="currentColor" fill-rule="evenodd"></path>
</svg>