<svg xmlns="http://www.w3.org/2000/svg" width="14.816" height="14.163" viewBox="0 0 14.816 14.163" fill="none">
  <path d="M 7.409 0 C 7.549 0 7.686 0.039 7.805 0.113 C 7.924 0.187 8.02 0.292 8.082 0.418 L 9.964 4.233 L 14.174 4.845 C 14.313 4.865 14.443 4.924 14.55 5.014 C 14.657 5.104 14.736 5.222 14.779 5.355 C 14.823 5.488 14.828 5.631 14.794 5.767 C 14.761 5.903 14.69 6.026 14.59 6.124 L 11.544 9.094 L 12.263 13.286 C 12.287 13.424 12.271 13.566 12.219 13.695 C 12.166 13.825 12.078 13.937 11.965 14.02 C 11.852 14.102 11.718 14.151 11.578 14.161 C 11.439 14.171 11.299 14.142 11.175 14.077 L 7.409 12.097 L 3.643 14.077 C 3.519 14.142 3.38 14.171 3.24 14.161 C 3.101 14.151 2.967 14.102 2.854 14.02 C 2.741 13.938 2.653 13.826 2.6 13.696 C 2.547 13.566 2.532 13.425 2.555 13.287 L 3.275 9.093 L 0.227 6.124 C 0.127 6.026 0.056 5.902 0.022 5.766 C -0.012 5.63 -0.007 5.488 0.037 5.355 C 0.08 5.221 0.16 5.103 0.267 5.013 C 0.374 4.922 0.504 4.864 0.643 4.844 L 4.853 4.233 L 6.736 0.418 C 6.798 0.292 6.894 0.187 7.013 0.113 C 7.132 0.039 7.269 0 7.409 0 Z M 7.409 2.445 L 6.024 5.25 C 5.97 5.359 5.891 5.453 5.793 5.525 C 5.694 5.596 5.58 5.642 5.46 5.66 L 2.363 6.11 L 4.603 8.294 C 4.69 8.379 4.755 8.484 4.793 8.599 C 4.831 8.715 4.84 8.838 4.819 8.958 L 4.291 12.042 L 7.06 10.586 C 7.168 10.529 7.288 10.5 7.409 10.5 C 7.531 10.5 7.65 10.529 7.758 10.586 L 10.528 12.042 L 9.998 8.958 C 9.978 8.838 9.986 8.715 10.024 8.599 C 10.062 8.484 10.127 8.379 10.214 8.294 L 12.454 6.111 L 9.358 5.661 C 9.238 5.643 9.124 5.597 9.026 5.526 C 8.927 5.454 8.848 5.36 8.794 5.251 L 7.409 2.444 L 7.409 2.445 Z" fill="currentColor" fill-rule="evenodd"></path>
</svg>