<svg xmlns="http://www.w3.org/2000/svg" width="81" height="81" viewBox="0 0 81 81" fill="none">
  <path d="M 40.529 0 C 18.12 0 0 18.562 0 41.528 C 0 59.888 11.607 75.421 27.711 80.922 C 29.727 81.335 30.465 80.027 30.465 78.931 C 30.465 77.969 30.399 74.67 30.399 71.227 C 19.124 73.699 16.776 66.275 16.776 66.275 C 14.967 61.465 12.279 60.225 12.279 60.225 C 8.587 57.686 12.544 57.686 12.544 57.686 C 16.635 57.964 18.784 61.946 18.784 61.946 C 22.409 68.274 28.242 66.486 30.598 65.38 C 30.93 62.697 32.008 60.841 33.145 59.812 C 24.151 58.85 14.693 55.272 14.693 39.326 C 14.693 34.787 16.303 31.074 18.85 28.189 C 18.443 27.16 17.041 22.899 19.256 17.187 C 19.256 17.187 22.675 16.09 30.399 21.448 C 33.701 20.536 37.111 20.072 40.529 20.072 C 43.947 20.072 47.44 20.553 50.659 21.448 C 58.375 16.081 61.801 17.187 61.801 17.187 C 64.017 22.89 62.606 27.16 62.208 28.189 C 64.821 31.074 66.365 34.787 66.365 39.326 C 66.365 55.281 56.906 58.782 47.847 59.812 C 49.323 61.12 50.601 63.592 50.601 67.515 C 50.601 73.084 50.535 77.555 50.535 78.931 C 50.535 80.027 51.273 81.335 53.289 80.922 C 69.393 75.421 81 59.888 81 41.528 C 81.066 18.562 62.88 0 40.537 0 L 40.529 0 Z" fill="currentColor" fill-rule="evenodd"></path>
</svg>